<svg viewBox="0 0 96 96" xmlns="http://www.w3.org/2000/svg" xmlns:xlink="http://www.w3.org/1999/xlink" id="Icons_ArtificialIntelligence" overflow="hidden"><style>
.MsftOfcThm_Background1_Fill_v2 {
 fill:#FFFFFF; 
}
</style>
<path d="M81 51 74.1 39 74.1 38.5C74.7 21.9 61.7 8 45.1 7.4 28.5 6.8 14.6 19.7 14 36.3 14 37 14 37.8 14 38.5 14 48 18.3 56.9 25.8 62.7L25.8 88 57.4 88 57.4 76 62.3 76C68.8 76 74.1 70.7 74.1 64.2 74.1 64.1 74.1 64.1 74.1 64L74.1 58 78.5 58C81.1 57.7 83.4 54.7 81 51ZM18.5 28.5 24 28.5 24 24.5C22.9 23.7 22.7 22.1 23.5 21 24.3 19.9 25.9 19.7 27 20.5 28.1 21.3 28.3 22.9 27.5 24 27.4 24.2 27.2 24.4 27 24.5L27 28.5 31 28.5 31 35.5C32.1 36.3 32.3 37.9 31.5 39 30.7 40.1 29.1 40.3 28 39.5 26.9 38.7 26.7 37.1 27.5 36 27.6 35.8 27.8 35.6 28 35.5L28 31.5 17.6 31.5C17.9 30.5 18.1 29.5 18.5 28.5ZM46.3 45.4C44.9 45.4 43.8 44.3 43.8 42.9 43.8 42.8 43.8 42.6 43.8 42.5L41.2 39.9 37 44.1 37 51.5C38.1 52.3 38.3 53.9 37.5 55 36.7 56.1 35.1 56.3 34 55.5 32.9 54.7 32.7 53.1 33.5 52 33.6 51.8 33.8 51.6 34 51.5L34 50.5 27.3 50.5 22.6 45C21.2 45.1 20 44.1 19.9 42.7 19.8 41.3 20.8 40.1 22.2 40 23.6 39.9 24.8 40.9 24.9 42.3 24.9 42.5 24.9 42.8 24.9 43L28.7 47.5 34 47.5 34 42.9 39.1 37.8 36 34.6 36 16.5C34.9 15.7 34.7 14.1 35.5 13 36.3 11.9 37.9 11.7 39 12.5 40.1 13.3 40.3 14.9 39.5 16 39.4 16.2 39.2 16.4 39 16.5L39 19.5 47 19.5 47 26.5C48.1 27.3 48.3 28.9 47.5 30 46.7 31.1 45.1 31.3 44 30.5 42.9 29.7 42.7 28.1 43.5 27 43.6 26.8 43.8 26.6 44 26.5L44 22.5 39 22.5 39 33.4 46 40.4C46.1 40.4 46.2 40.4 46.3 40.4 47.7 40.4 48.8 41.5 48.8 42.9 48.8 44.3 47.7 45.4 46.3 45.4L46.3 45.4ZM58.5 25.2C57.1 25.2 56 24.1 56 22.7 56 22.6 56 22.6 56 22.5L52 18.9 52 11.6C53 11.9 54 12.3 55 12.7L55 17.6 58 20.3C58.2 20.3 58.3 20.3 58.5 20.3 59.9 20.3 61 21.4 61 22.8 61 24.2 59.9 25.2 58.5 25.2L58.5 25.2Z" class="MsftOfcThm_Background1_Fill_v2" stroke="none" stroke-width="1" stroke-linecap="butt" stroke-linejoin="miter" stroke-miterlimit="4" fill="#FFFFFF" fill-opacity="1"/></svg>