<svg viewBox="0 0 96 96" xmlns="http://www.w3.org/2000/svg" xmlns:xlink="http://www.w3.org/1999/xlink" id="Icons_Gravestone" overflow="hidden"><style>
.MsftOfcThm_Background1_Fill_v2 {
 fill:#FFFFFF; 
}
</style>
<path d="M69 29C69 17.402 59.598 8 48 8 36.402 8 27 17.402 27 29L24 29 24 73 72 73 72 29ZM56 39 40 39C38.8954 39 38 38.1046 38 37 38 35.8954 38.8954 35 40 35L56 35C57.1046 35 58 35.8954 58 37 58 38.1046 57.1046 39 56 39ZM59 31 37 31C35.8954 31 35 30.1046 35 29 35 27.8954 35.8954 27 37 27L59 27C60.1046 27 61 27.8954 61 29 61 30.1046 60.1046 31 59 31Z" class="MsftOfcThm_Background1_Fill_v2" fill="#FFFFFF"/><path d="M24 77 72 77C74.2091 77 76 78.7909 76 81L76 88 76 88 20 88 20 88 20 81C20 78.7909 21.7909 77 24 77Z" class="MsftOfcThm_Background1_Fill_v2" fill="#FFFFFF"/></svg>