<svg viewBox="0 0 96 96" xmlns="http://www.w3.org/2000/svg" xmlns:xlink="http://www.w3.org/1999/xlink" id="Icons_DoctorFemale" overflow="hidden"><style>
.MsftOfcThm_Background1_Fill_v2 {
 fill:#FFFFFF; 
}
</style>
<g id="Icons"><path d="M79 64.958C78.8908 62.049 77.5419 59.3257 75.294 57.476 72.161 54.815 67.865 52.525 61.864 50.298 63.9691 50.0683 66.0333 49.554 68 48.769 68 48.769 65.738 47.416 64.337 41.879 63.448 38.4 66.85 29.702 66.879 23.579 66.879 18.679 65.487 16.485 62.858 14.997 61.341 14.137 57.843 14.929 57.843 14.929 57.843 14.929 56.04 11.5 49.99 9.62 45.0193 8.26492 39.7138 8.94124 35.242 11.5 31.5 13.92 29.7 16.578 29.608 25.72 29.531 34.099 30.681 41.54 30.149 45.048 29.9031 46.9903 29.1632 48.8372 28 50.412 29.8331 50.5662 31.6739 50.6066 33.512 50.533 27.838 52.686 23.729 54.908 20.705 57.475 18.4481 59.336 17.0988 62.0764 17 65L17 82.569 17.89 83.163C22.79 86.428 35.583 88.055 48.283 88.055 61.09 88.055 73.8 86.4 78.2 83.1L79 82.5ZM62.505 62C63.6096 62 64.505 62.8954 64.505 64 64.505 65.1046 63.6096 66 62.505 66 61.4004 66 60.505 65.1046 60.505 64 60.505 62.8954 61.4004 62 62.505 62ZM36 27.939C36.4873 27.9092 36.9725 27.8508 37.453 27.764 40.8081 27.3219 44.0825 26.4009 47.176 25.029 50.653 23.28 52.646 22.422 55.531 19.81 55.9116 19.4353 56.5238 19.4401 56.8985 19.8207 57.0407 19.9652 57.134 20.1507 57.165 20.351 57.395 21.941 57.993 25.44 58.788 26.835 59.1472 27.5211 59.5521 28.1822 60 28.814L60 33C60 39.6274 54.6274 45 48 45 41.3726 45 36 39.6274 36 33ZM55.821 51.909C53.2823 52.6573 50.6466 53.0249 48 53 45.351 53.0253 42.7129 52.6573 40.172 51.908 41.3305 50.9602 42.0017 49.5418 42 48.045L42 47.819C45.8473 49.391 50.1577 49.391 54.005 47.819L54.005 48.041C53.9989 49.538 54.6665 50.9584 55.823 51.909ZM75 80.409C66.24 85.228 30.6 85.187 21.008 80.348L21.008 65.042C21.0826 63.2754 21.9185 61.6276 23.3 60.524 26.0818 58.3075 29.1837 56.5259 32.5 55.24L32.5 59.522C28.5628 59.7851 25.5028 63.054 25.5 67 25.5013 67.4243 25.6831 67.8279 26 68.11L26 74.5C26.0032 75.8923 26.9639 77.0994 28.32 77.415 28.825 78.0717 29.7668 78.1946 30.4235 77.6896 31.0802 77.1846 31.2031 76.2428 30.6981 75.5861 30.1931 74.9295 29.2513 74.8065 28.5946 75.3115 28.5722 75.3287 28.5504 75.3466 28.529 75.365 28.2072 75.1957 28.0041 74.8636 28 74.5L28 68.11C28.3173 67.8282 28.4992 67.4244 28.5 67 28.5 64.5147 30.5147 62.5 33 62.5L34 62.5C36.4853 62.5 38.5 64.5147 38.5 67 38.5013 67.4243 38.6831 67.8279 39 68.11L39 74.5C38.9963 74.8634 38.7936 75.1956 38.472 75.365 37.8448 74.8237 36.8977 74.8934 36.3564 75.5205 35.8151 76.1477 35.8848 77.0949 36.5119 77.6361 37.1391 78.1774 38.0863 78.1078 38.6275 77.4806 38.646 77.4592 38.6638 77.4374 38.681 77.415 40.0367 77.099 40.9969 75.892 41 74.5L41 68.11C41.3173 67.8282 41.4992 67.4244 41.5 67 41.4956 63.0552 38.4361 59.788 34.5 59.525L34.5 54.435C34.777 54.327 35.048 54.219 35.338 54.11 38.275 55.934 42.891 57 48 57 53.109 57 57.724 55.933 60.657 54.11 60.95 54.22 61.22 54.329 61.503 54.439L61.503 60.075C61.503 60.098 61.515 60.116 61.516 60.138 59.3752 60.6834 58.0819 62.8609 58.6273 65.0017 59.1727 67.1424 61.3502 68.4358 63.491 67.8904 65.6318 67.345 66.9251 65.1674 66.3797 63.0267 66.0182 61.6076 64.9101 60.4995 63.491 60.138 63.491 60.116 63.503 60.097 63.503 60.075L63.503 55.244C66.8196 56.5279 69.9217 58.3086 72.703 60.525 74.0767 61.6169 74.9136 63.2474 75 65Z" class="MsftOfcThm_Background1_Fill_v2" stroke="none" stroke-width="1" stroke-linecap="butt" stroke-linejoin="miter" stroke-miterlimit="4" fill="#FFFFFF" fill-opacity="1"/><circle cx="62.505" cy="64" r="1" class="MsftOfcThm_Background1_Fill_v2" stroke="none" stroke-width="1" stroke-linecap="butt" stroke-linejoin="miter" stroke-miterlimit="4" fill="#FFFFFF" fill-opacity="1"/></g></svg>