<svg viewBox="0 0 96 96" xmlns="http://www.w3.org/2000/svg" xmlns:xlink="http://www.w3.org/1999/xlink" id="Icons_Medal" overflow="hidden"><style>
.MsftOfcThm_Accent1_lumMod_20_lumOff_80_Fill_v2 {
 fill:#DFF5FC; 
}
</style>
<g><path d="M48 53.4C41.5 53.4 36.2 58.7 36.2 65.2 36.2 71.7 41.5 77.1 48 77.1 54.5 77.1 59.8 71.8 59.8 65.3 59.8 58.8 54.5 53.4 48 53.4" class="MsftOfcThm_Accent1_lumMod_20_lumOff_80_Fill_v2" fill="#380001"/><path d="M48 43.3C35.9 43.3 26 53.2 26 65.3 26 77.4 35.9 87.3 48 87.3 60.1 87.3 70 77.4 70 65.3 70 53.2 60.1 43.3 48 43.3M48 81.3C39.2 81.3 32 74.1 32 65.3 32 56.5 39.2 49.3 48 49.3 56.8 49.3 64 56.5 64 65.3 64 74.1 56.8 81.3 48 81.3" class="MsftOfcThm_Accent1_lumMod_20_lumOff_80_Fill_v2" fill="#380001"/><path d="M53.4 39.8C57.4 40.7 61.1 42.4 64.3 44.9L76.6 17.1 71 8.7 67.4 8.7 59.6 25.8 53.4 39.8Z" class="MsftOfcThm_Accent1_lumMod_20_lumOff_80_Fill_v2" fill="#380001"/><path d="M42.6 39.8 36.4 25.8 28.6 8.7 25 8.7 19.5 17.1 31.8 44.9C34.9 42.5 38.6 40.7 42.6 39.8" class="MsftOfcThm_Accent1_lumMod_20_lumOff_80_Fill_v2" fill="#380001"/><path d="M57.5 20.8 63 8.8 33 8.8 38.5 20.8Z" class="MsftOfcThm_Accent1_lumMod_20_lumOff_80_Fill_v2" fill="#380001"/></g></svg>